<svg xmlns="http://www.w3.org/2000/svg" width="1200" height="630" viewBox="0 0 1200 630" role="img" aria-labelledby="title desc">
  <title id="title">Nhập Lưu</title>
  <desc id="desc">Thư viện Phật pháp Nguyên thủy và nền tảng thực hành thiền định, kinh điển, và cộng đồng.</desc>
  <defs>
    <linearGradient id="bg" x1="0%" y1="0%" x2="100%" y2="100%">
      <stop offset="0%" stop-color="#f7f0d7"/>
      <stop offset="55%" stop-color="#f2e2b6"/>
      <stop offset="100%" stop-color="#d8b56c"/>
    </linearGradient>
    <linearGradient id="panel" x1="0%" y1="0%" x2="100%" y2="100%">
      <stop offset="0%" stop-color="#fffdf6" stop-opacity="0.96"/>
      <stop offset="100%" stop-color="#fbf3dd" stop-opacity="0.92"/>
    </linearGradient>
  </defs>
  <rect width="1200" height="630" fill="url(#bg)"/>
  <circle cx="165" cy="124" r="240" fill="#ffffff" opacity="0.18"/>
  <circle cx="1048" cy="544" r="220" fill="#9c6b1a" opacity="0.12"/>
  <rect x="74" y="68" width="1052" height="494" rx="30" fill="url(#panel)" stroke="#b8872d" stroke-opacity="0.28"/>
  <g fill="#7f5413">
    <path d="M170 191c31-60 87-99 161-99 72 0 129 36 161 98 33 64 29 140-6 203-35 63-95 97-155 97-64 0-124-35-159-98-35-62-38-138-2-201zm37 20c-27 50-26 109 1 158 28 50 73 78 123 78 47 0 92-27 120-78 28-49 30-109 4-159-25-48-69-76-123-76-56 0-99 30-125 77z"/>
    <path d="M319 167c17 31 25 70 25 111 0 43-9 81-26 113l-36-18c14-27 21-58 21-94 0-33-6-65-20-93z"/>
    <path d="M307 273c14 0 27 5 36 15 9 9 14 22 14 36 0 15-5 28-14 37-9 10-22 15-36 15-15 0-28-5-37-15-10-9-15-22-15-37 0-14 5-27 15-36 9-10 22-15 37-15z"/>
  </g>
  <text x="510" y="234" font-size="76" font-family="Georgia, 'Times New Roman', serif" fill="#4f3510" font-weight="700">Nhập Lưu</text>
  <text x="510" y="308" font-size="31" font-family="Georgia, 'Times New Roman', serif" fill="#6b4b16">Phật pháp Nguyên thủy cho người hành trì nghiêm túc</text>
  <text x="510" y="366" font-size="26" font-family="'Helvetica Neue', Arial, sans-serif" fill="#6f5a30">
    Thiền định • Kinh điển Pāli • Giáo pháp thực hành • Cộng đồng Kalyāṇamitta
  </text>
  <text x="510" y="443" font-size="24" font-family="'Helvetica Neue', Arial, sans-serif" fill="#8b6a2a">
    cschanhniem.github.io
  </text>
</svg>
